<svg xmlns="http://www.w3.org/2000/svg" viewBox="0 0 171.49 220.51"><defs><style>.cls-1{fill:none;stroke:#000;stroke-linecap:round;stroke-linejoin:round;}</style></defs><g id="Calque_2" data-name="Calque 2"><g id="Calque_2-2" data-name="Calque 2"><path class="cls-1" d="M67,220c1.84-30.48,6.92-69.27,6-73.42s-1.14-8.89-3.93-8.24-17.41.86-23.65-1.94-15.9-12.89-15-20,4.08-13.76,11.82-12.68,23.86,12.68,26.22,19.56S37.5,107,30.84,99.44,5.9,59,3.11,48.07-1.62,32.59,4.83,33s12.25,3.22,19.34,11,44.5,68.14,47.29,75.88S64.8,110.4,57.28,81.17,54.05,43.77,56,38.39s6.87-13.11,10.1-14S72.75,21,77.7,29.36,91.88,67,90.38,79.23,83.07,117.71,80.49,122,85,83.53,96,68.27s29.45-31.81,35-33.53,14.41-5.16,20.43-3.66,7.73,2.8,6.23,12.26-15,41.48-20.64,46.43-37.18,32.67-45.35,36.75,12.68-14.18,27.94-18.91,44.71-7.31,50.09-5.16-7.31,13.11-13.55,15.91-21.71,10.53-27.94,11.17-27.08,5.59-33.32,4.95,19.56-4.3,29.88-.86,17,4.3,15.48,7.31-8,12-30.31,12-34-10.53-35.47-15.9.9-8.12-.25-10.06-4.45-12.24-4.57-17.27-.46-15.2,2.17-17.83,6.18-2.4,6.75-1.15.34,1.15-2.17,1.49-4.46,14.63-2.63,19.44a21.44,21.44,0,0,1,1,10.29c-.12.91,1.6,6.74,1.94,8.8s.11-2.06.23-5,3.2-17.84,1.71-23.44A142.67,142.67,0,0,1,75.6,83.78c-.12-2.29-.23-26.34-1.24-30.4S69,6.57,69,3s5.35-3,5.6-.25-1,27.72-.25,35.1,3.3,18.31,3.3,23.91.59,32.5,2.09,37.38.25,22.29-.25,26.55,7-22.29,10-27.93,14.36-18.55,15.15-22.86,3.32-29,3.32-34-2.54-14.49.2-14.68,6.26-2.55,5.28,1.17a48.6,48.6,0,0,0-1.95,11.75c-.2,4.89-3.14,27.2-4.51,34.64-.19,2.54,2.74-1.57,5.88-5.48s31.9-33.08,33.47-31.32,5.09,9.2,3.32,8.62-3.32-1.57-7.83,1.37-33.07,30.72-38.75,36.79-12.46,17-14.62,21.33-6.62,20.81-8.94,24.51,4.32-1.7,5.09-5.09S94.33,93,99,92.87s2,4.94-1.84,13.57-8.94,19.11-11,21-5.35,4.16-6.78,6,1.14,15-.14,20.82-4.63,32.07-4.85,37.39"/></g></g></svg>