<svg xmlns="http://www.w3.org/2000/svg" viewBox="0 0 365.85 279.71"><defs><style>.cls-1{fill:none;stroke:#000;stroke-linecap:round;stroke-linejoin:round;}</style></defs><g id="Calque_2" data-name="Calque 2"><g id="Calque_2-2" data-name="Calque 2"><path class="cls-1" d="M320.5,274.19c-13.46-12.39-16.33-19.75-23.7-25.6s-30.28-23.92-33.84-29-11.71-13-14.76-21.88-7.89-14.76-8.65-16.79,4.06-3.36,7.07-2.35,16.91,5.63,30,5.09,20.55-4.79,26.08-7.37,11.07-7.56,20.84-8.12,18.26-4.24,25.82-8.48,8.12-8.67,10.33-14-1.29-7.1,3.46-10.1,1.26-2.25-4.75-.5S248.63,175.34,246,175.89s-3.28.68-2.46-5.33,8.26-18.24,23.94-26.48,39.87-25.51,56.62-25.51,21.32,2.75,23.34,6,3.67,4-.73,4.59-8.07,5.31-6.42,5.86,6.6,3.67,10.45-1.28,6.78-4.4,9-3.3,6.78,3.67-1.65,6.05-109,40.07-111.35,40.35a31.21,31.21,0,0,0-9.32,3.16c-2.87,1.58-3.44,5.17-2.11,8.38s7.69,11.06,7.13,17.72-3.05,31.63-7.77,44.67-11.93,25.8-20.53,27.47-11.89.65-15.95.39-6.84,0-5.83-1.77,40.3-89.22,39.8-90.74-5.58-1.27-10.4,1-15.46,12.17-18.75,19-20.53,33.46-20.53,45.63,3.29,20.53,6.08,22.55,4,2.56,5.25,1.75,36.46-79.67,37.9-84.17.8-7.87,2.09-10.12,3.05-1.28,1.93-4.33-6.59-9-6.59-10.44,1.45-5.62,2.57-5.62,9.88-3.09,16.06-7,19.3-17.76,27.28-28.06,15.45-34.5,18-35.78S299,84.46,298.5,76s-3.61-18.27-13.13-18-1.54,1-5.66,12.36-46.85,84.18-49.17,89.07-9-.52-8.75-10.81,6.69-34.24,11.32-37.59,1.29-11.07,10-21.62,9-15.7,15.7-22.65,15.71-11.33,18.54-8.5,2.57,4.89,1.29,9S229.21,163.17,228,165s-6.22,5.46-8,6.43-1.16,9.66-4.44,13.71-27,38.2-31.25,41.17-23.75,19.3-28.7,19.3-7.92-3.46-10.39-1.48-6.19,6.43-5.94,4.21,2-5.7,5.94-9.9S180.9,198.07,197,188.92s21.45-17.55,21.09-19-10.54-5-14.83-4.47-5.9.36-10.54,7.33-21.26,16.25-25.91,19.47-6.25,12.69-13.4,15.19-13.22,2.32-13.75,9.64-2.15,15.73.35,20.19,4.47,3.58,13.4-6.07,29-30.37,32.34-31.8,4.55-5.26,8.22-7.28A183.8,183.8,0,0,0,210,182c3-2.4,7.32-11.62,10.48-13.26s4.67-2,2.78-3.54-9.69-9.76-10.29-11.1-.63-6,1.65-7.19,8.85-5.15,5.26-3.71-7.3,4.9-5.5,1.43,9.32-33.45,11.85-46.82S234.53,51.25,238,44s5.78-8.85,8.85-7.76,11.56,1.44,9.4,14.63S253.64,67,253.77,69.22s1.85,1.06,1.85-3.3,3.3-17.82,2-21.79-.79-8.45-15.45-10.16c-2-1.19.53-2.91-.39-4.23s-1.06-2.64-2.78,0-4.49,5.28-10.43,5.41-9.77.8-6.86,4.89,6.36,12.52,3,13.69-3.13,2.94-1.37,7.64,2.74,13.71-1.17,14.1-1.18,6.46-3.92,6.66-8-1-9.21,10.38-11.55,21.74-7.24,33.69,8.22,16.64,8.42,18.41,2.65,3.87.54,7.24-3,6.22-5.59,6.54-2.79,4.79-5.06,5.74,1.32-3.21,1.32-4.73-4,1.33-7.18,3-59.52,32.88-68,39.68-28.91,24.56-31.75,26.45,6.24-5.45,9-1.73,8.74,7.81,13.58,2.42,11.9-12.65,16-12.27,5,2,5.39-2,6.7-7.63,10.61-8.18,7-1.32,10.17-7,5.17-8.35,10.34-11,19.34-13.11,22-16.43,3.84-6.62,5.83-7.15,7.68-5.43,4-8.75-17.88-6.75-28.61-2.51-37.24,15.76-43.46,20.27S112.65,185.79,107,194.85s-9.52,15.86-9.07,21.07-2.22,9.46,2.5,5.53,16.51-14.31,21.86-18.24S132.5,195,141,190.47s41.67-22.65,48-26.89,8.65-6,10.38-5.82,7.4-2,7.71-2.52-.16-2.83-6-4.4-12.26-8.83-13.25-9.69.33-5.88,1.72-6.8,6-6.63,8.25-8.57,2.05-4.61,2.05-6.86.3-7.37,2.66-11.37,4.3-9.32,4.3-10.24,1.54-14.64,4-15,5.33-.3,5.53-4.71,3.38-11.57,3.79-17.1,1.54-9.52.82-13.41.92-17.2-.61-20.79-8.91-3.17-11-5.43-1.34-7.53-2.05-9.3-3.35,7.05-3.52,12.16-5.64,54.62-7.4,66.6-7.62,40.37-8.46,43.65-4.79,0-7.75-7.7-4.15-19.86.89-28.46.89-8-.89-16S168.32,50.14,178.7,37.1,196,19.34,201,19.34s3.74,13.07,3.37,17.37-8.22,75.65-13.27,90.78-11,20.17-13.44,21.11-3.35,3-5,4.08-25,10.71-30,12.67-26.84,16-30.15,19.29S97.73,207,97.12,209.21s-8,6.48-10.55,6.48-5.43-1.8-4.67-6S75.41,196,87,185.39s17.94-20,25.78-22,13.42-11,18.09-11.61,6.48-5.73,12.66-6.33,15.83-8.6,23.67-5.43,8,6.33,11,5.28,7.24-4.68,5.28-5.58S159.38,129,158,127.66s-.9-6.48-.15-8.59S162.4,100.83,162.4,95s-1.81-15.08-.46-18.55-.15-7.23-.6-11.9-3.47-7.69-2.41-11-2.11-22.91-.76-28.64,4.53-10.7-2-17S146.87.13,142,.58s-7.38-1.21-6.33,5.28,8.6,56.22,9.5,64.82,8.29,40.4,9.5,44,3,7.84,0,6.79-10.25-6.79-13.27-12.36-12.51-28.95-15.83-32.41-6-8.9-6.33-13.57-2.56-9.65-3.47-12.36.31-18.85-1.5-22.76-1.51-12.67,1.5-16.89S125.31,4.8,130,3.44s8,.46,8,5.43,7.09,51.86,8.3,56.68,1.8,16.43,4.67,28.19,6.33,28.94,5,32.26-7.84,6.18-11.3,9.35-14.78,13.71-21.71,16.73-8.59,6.18-13.57,7.54-9.34,3-12.66,6.18a53.77,53.77,0,0,1-14,9.95C76.17,178.91,70,189.16,63.2,191.27s-16.13,7.69-18.84,6-6.33-1.81-7.54-13.41c-.76-3.86,3.1,1.42,10.62-2.44S84.82,162.15,96,156.26s41-21.33,47.34-24.38,2.64-7.31-5.08-7.52-21.53.61-30.27,2.85-13.61,3.45-20.52,7.51S77.91,142.65,70,145.49s-29.26,14-32.1,22.55-2.85,10.57-.2,12,5.07,5.28,14.42,1S85.68,162.49,90,161.36s30-16.3,34.06-18.07,22-11.95,25-14.21,1.62-6.13-4-6.77-22.75-5.53-22.75-9.58,1.29-1.65-1.66-5.89S113.32,87.71,108,75.38,79.83,18.71,70.45,16.14,46,13.93,48,18.53,71.92,54,83.69,67.1s31.1,35,33.3,39-1.28,4.78-10.11,2.39S83.51,94.15,69.53,83.29,40.64,70.41,40.64,47.23s.74-23.18,3.86-25.94,6.08-4.78,9.76,2.94S98.78,80.9,105.22,89s15.45,18.58,15.27,21.89-.18,3-8.65,1.84-18-7.36-29.07-12.69-52.46-24-63.62-16.51S-3,104.94,1.93,112.15s41-.7,60.26-1.39,31-2.56,32.58-.93,4,1.62-4.65,2.09-19.55.7-31.42,6.28-36.53,15.59-41.88,20.71S5.65,135,5.42,126.58.06,118.9.53,114.48s7.45-1.86,15.59-1.86,63.85-5.34,70.64-5.34,7.87,2.31,13.89,3.08,19.59,3.24,19,5.56-3.62,8-7.15,8.8-19.21,3.53-24.5,7.45-9.61,8.42-15.88,10.58S40.33,158.24,37.2,164.12s-14.31,8.23-18.43,4.9-5.29-5.69,11.57-13.92,47-23.33,59.2-28,29.2-11,24.89-10.19a87.81,87.81,0,0,0-15.56,4.68c-6.18,2.37-65.75,29.94-73.19,34.06s-10.46,9-11.25,5.86-3.49-16,1-19.17"/></g></g></svg>