<svg xmlns="http://www.w3.org/2000/svg" viewBox="0 0 504.48 511.93"><defs><style>.cls-1{fill:none;stroke:#000;stroke-linecap:round;stroke-linejoin:round;}</style></defs><g id="Calque_2" data-name="Calque 2"><g id="Calque_2-2" data-name="Calque 2"><path class="cls-1" d="M.75,511.43s-2.54-84.7,8.47-135.52,21.18-133,33-171.94,61-99.1,77.92-96.56-59.29,51.67-54.21,83S60.89,314.93,47.34,403,30.4,503,30.4,503s15.32-1.38,32-136c1.47-12.29,27-52.58,49.63-68.3s19.65-26,31.93-23.09,16.22,11.3,23.1,11.3,5.4,9.83-6.88,11.3-17.2,4.42-23.59,3.93-2.45,7.37,5.41,6.39,18.18,4.91,26.53-3c6.39,15.72,13.76,18.18,21.13,15.23s8.84-8.35,15.72-6.39,7.37,19.66,12.78,19.17,9.82-4.92,19.65-5.9,25.06,2.46,27-6.88,4.42-15.72-1.47-21.13-1.48-9.82,8.84-9.82,8.36-4.92,16.71-5.9,4.42-3.93,8.84-5.89c7.37,2.94,16.22-1,24.57-6.39s14.74-1.48,18.18-2.46-7.37-10.32-1.48-11.3,7.38-12.28,11.8-12.28-7.86,22.6.49,21.12S361.17,252,365.1,252s10.31,13.76,22.11-13.26,9.33-20.15,15.72-21.13,4.42-10.81,9.83-10.81-2.95,12.78,4.91,11.79,14.25-14.25,17.69-15.23,9.45-2.24,13.83-5.42,1.59-8.76,9.55-8.76,5.18-4.38,7.57-4.38,4.77,5.57,6.76,2.79-5.57-9.56.8-9.56,9.16.4,9.16-4-10.75-5.18-13.94-8.36-12.34-11.94-7.56-11.94,7.56,4.77,13.93,0,10.75-5.18,16.33-5.58,8.36-4.38,2-6S483,134.61,484.22,131s9.56-4.38,9.16-11.54-1.59-8.76,4-9.56,5.57-5.57,4.78-13.53,0-12,1.59-15.13-4.78-8-7.17-4.78-2-12.34.8-17.91-8.36-8.76-4-17.12,1.19-20.7-3.19-19.51-4.38,10-9.95,8-16.72-8-26.27-7.16-15.13.4-17.12-4-10-4-13.94-4-3.58-9.16-12.34-8-17.12,6.37-17.91,1.6-15.53-12.74-22.3-4-7.16,19.51-13.53,19.51-15.53,1.59-16.72,9.16-12.74,13.53-16.33,13.53-6-5.57-12.34-5.17-6.77,23.09-13.93,23.09-17.52,2-21.9,4.78-7.56,12.34-11.54,12.74-19.51-.8-13.94,4.38,7.17,6,2,5.57-21.1,1.59-22.29,9.16-4.78-4.38-6.37,3.18-7.17,13.54-11.55,12.34-17.51-10-22.29.4-.4,19.91-4.78,19.91-8.76,11.54-17.52,10.74S151,145,146.22,151.33c-7.56-.4-13.93,9.55-21.49,8.76s-13.14,9.15-14.34,13.93-6.36,1.19-10,4.78-8.76,16.32-2,13.14S98.05,223,105.62,223s2.78,1.59,4.38-9.16-6-17.52,5.57-17.52,18.31,11.95,23.89,13.14,13.93,5.58,4,5.58S118,220.2,118,224.58s19.51,4,25.88,6.77,15.52,11.15,2,10.35-22.7,7.56-17.52,10.35-38.22,21.1-50.16,35"/></g></g></svg>