<svg xmlns="http://www.w3.org/2000/svg" viewBox="0 0 256.8 356.57"><defs><style>.cls-1{fill:none;stroke:#000;stroke-linecap:round;stroke-linejoin:round;}</style></defs><g id="Calque_2" data-name="Calque 2"><g id="Calque_2-2" data-name="Calque 2"><path class="cls-1" d="M64.27,153.33c8,4.37,17.55,8.71,20.44,8.23,4.9-.81,7.75,4.41,7.75.25s-1-8.51-.62-15.37,3.53-7.47,3.32-14.95S92,115.08,88.93,111.34s-9.14-10.59-11.22-22,1.66-30.74,4.36-30.74-1.24,1.87-1.87,8.1-2.28,26,2.29,31.36,2.08-6.85,5.61-6.23S98.27,96.39,95,98.05s-3.94-.83-5.19-2.7-3.32-1-2.91,2.49,3.74,10.39,6,13.92,2.29,5,2.7,7.89,3.33,9.76.21,16.82-2.91,10.8-2.7,14.13S93.5,166.17,96,172c-2.08,12.46-12.25,56.7,7.06,47.56,3.74-2.28,1.25-3.32-.41-4.36s3.11-27.62,2.49-31.57-9.76-11.42-6.23-9.55,11,15.57,12.46,18.27,10,26.16,10,37.7,6,64.4,6,71.47-1.49,12.66,0,15.27c0,0-4,6.58-3.1,12s-5.13,20.24-10,22.81-14.83.57-19.39-.29-8.83-9.4-11.68-19.1.85-10.54-1.43-15.67-4.27-1.71-4.27-17.39-4.56-61.57-4.56-78.95-4.28-35.35-5.42-45a90.61,90.61,0,0,0-5-19.47s.09-3.13-.68-3.7c-4.14-3-8-5-9-6.19-2.72-3.54-6-7.62-11.43-7.62s-12-6.8-13.06-16.33-19-20.14-23.13-24.49S-1,87,1.71,81.83,8,55.43,16.13,36.92,48.24,7.81,58.86,6.44,93.15,13,103.49,17.06c3.26-9,15.78-13.61,27.48-14.7s12.8-3.27,18-.54a15.35,15.35,0,0,1,7.68,9.33c.7,2.11,5.62.71,19.33-4.92s24.6-3.16,42.87,0,31.63,26,33.86,29.35,1.34,8.24-2,8.68.44,3.57,3.34,10.25,2.22,21.82,2.22,27.83S248.88,90.8,246,99,233.3,126,226.17,129.55,211.69,142.23,208.91,146s-13.74,4.42-18.32,7.69-7.53,3.76-9,3.27-8.51-28.63-9.16-31.41-1.8-8.18-.65-10.8,4.09-11.45,9.48-21.1,4.26-18.81,4.42-22.58S181.76,59.45,179.63,58s.49,6.05,3.76,10-.33,20.94-2.94,22.9-6.55-2.29-8.18,1-2.62,3.11-4.09,3,1.8,3.43-1.15,2.45,2.29-8.51,6.55-9,3.27,8.51,1.3,13.91-5.39,11-5.86,14.92,7.92,29.57,9.55,35.15,2.09,7.22-.27,9-1.82,4.54-.73,10.36,6,26,6,28.9-.55,9.27-4,11.08-7.09-.36-9.63-1.45,2.91-6,4.18-7.09-5.45-21.81-5.64-23.63,5.09-8.9,5.64-10.54-1.27.18-5.82,7.09-7.09,11.62-11.56,19.44-1.49,74.45-1.49,89,3,28.29-4.47,38c-5.58,7.26-15.14,1.95-20.2-2.25,0,0-2.44-.45-2.74,6.18s-1.5,17.47-5,19.43-3.61,7.23,2.11,8.13,17.17,1.21,27.71,2,23.5,0,24.4-4.22,2.71-.3,1.06-8-4.05-11.8-3-27,1.52-23.64.21-34.49-1.3-16.7,6.08-32.53,9.32-34.7,16.91-51.84,21-23.64,23-36.65,2.82-23.86,2.82-23.86"/></g></g></svg>