<svg xmlns="http://www.w3.org/2000/svg" viewBox="0 0 302.24 297.23"><defs><style>.draw{fill:none;stroke:#000;stroke-linecap:round;stroke-linejoin:round;}</style></defs><path class="draw" d="M12.21,108C.34,92-.18,83.73.86,77s19.61-11.87,34.58-9.29,5.33-4.16,13-2.87,9.31,7.38,9.31-2.57,4.82-34,9.64-42.72S70.64,7.05,76.1,5.76,86.37-1.62,113,1.27s54.91,11.88,57.48,36.61c17.35-12.53,46.57-23.44,52.67-23.44S235.39,29.85,237.31,35s11.24,38.54-8.67,68.72-45.28,15.74-47.53,14.78-1,6.42,10.28,7.06,26.33,3.21,41.43-19.91c12.52,1.61,30.51,13.49,42.07,33.72s28.9,37.26,26.65,43.68-4.82,18.62-16.06,22.48-45.92,10.28-68.08,4.17-23.76-7.06-23.44-12.2,3.85-32.76-14.45-36.93,6.1,3.85,8,9.31,8.68,20.55,2.25,40.79-15.09,30.83-15.09,40.46S166,297.37,158,296.72s-44-39.5-47.21-65.83c-6.84,6.63-14.86,14.34-44.47,11.26S9,226.42,5.87,218.71s5.55-33.3,10.79-45,4.94-16.35,7.41-16.35S23.14,170,25,172.76s3.39,10.18,7.09,7.4,12.34-1.54,15.42-1.54,2.16,4.94.62,7.4-10.48,6.79-8,9.56,14.5,10.18,21.9,5.24-4,7.1.61,15.73S80.19,227,87,221.49s5.55-17.27,8-17.27-3.08,13.26.93,15.72,8.33,5.25,10.79-.61S112.88,199,119.36,199s17,1.24,18.19,8.95,6.79,7.71,7.09,3.7-.92-3.7,4-4.94-.61-6.47,4-6.78,10.18,2.47,10.49-4.32,4.93-16,2.16-17.58,2.15-1.85,4.62-4.62,5.55-11.72.62-13.88,3.08-4.93,10.18-6.47,8.63-2.16,7.09-9.26S182,135.14,180.11,133s-4.94-12-3.39-13.26,6.47-3.08,6.47-10.49-1.85-13.87-12.64-13.56-15.73,3.08-12-2.16,2.47-8-1.23-8,2.16-3.39.92-9.25S149.27,67.6,145.57,63s-6.48-12-12.95-14.81-8.64-9.86-13-9.25-10.49,13.88-12,13.88-11.72-9.56-14.5-9.56-8,9.25-9.25,12.95S78.34,62.05,78,58.35s-7.71-9.56-12.64-7.71S61.07,62.36,62,65.44,58.29,72.77,54.45,70s-7-4.91-8.32-2.56-7.68.21-8.1,2.77,1.28,6,4,6.61,6.4,5.76,2.13,5.76-9.59-3-9.38,1.92,10.24,15.78,8.1,18.77-15.78,8.1-18.12,12.36-7,10.67-.43,10.67,10.24-.43,3,3.84S16.49,147,21.18,149.33s5.76,12.15,42.87,4.69S113.61,131.84,116.2,128s4.75-4.54,8.85-4.54,4.32-4.75,9.07-4.75,7.13.22,10.15.22,9.07-1.73,7.13-2.16-9.29-5.18-8.64-11.23.58-4.18,1.58-3.68-.66,7.46,2.65,9.44,8.61,5,7.95,8.62-2.48,9.77-.5,11.76.17,8-2.15,9.94S150,154.16,148,159s-8.94,3.81-8.94,9.28c-1.83-.67-3-3.15,1-6.13s6.79-3.48,7-8.12,1.16-14.25,4.31-16.07-6.46-5.3-9.45-2.32-10.43,2.65-13.91,0-10.44-3.48-6.3-4.14,2.82-4.81,1.82-5.31"/></svg>
