<svg xmlns="http://www.w3.org/2000/svg" viewBox="0 0 142.67 138.96"><defs><style>.cls-1{fill:none;stroke:#000;stroke-linecap:round;stroke-linejoin:round;}</style></defs><g id="Calque_2" data-name="Calque 2"><g id="Calque_2-2" data-name="Calque 2"><path class="cls-1" d="M80.23,82.11c-7.73,0-12.61,3.26-17.08,3.26s-12.2,3.25-19.52,2-21.56-1.63-28.47-1.63S.11,86.18.51,84.55s11.8,0,9.36-3.66S1.73,75.2,1.73,70.32s2.45-5.7,11-5.7,14.64-1.22,24.4-.81,21.55,3.25,27.25,7.73S68.25,74.8,70.06,76s3.83,1.61,5,1.21,8.86,5.43,9.66,3.22S85,76,82.14,74.6,79.32,75,78.92,71s-7.25-6-10.06-3.42-5.64,7.24-1.61,9a57.16,57.16,0,0,0,9.45,3.22c2.82.81,8.25,1.82,5.44,3.43s-4.83,5.23-10.87,5-19.92,10.46-21.33,16.5S44.5,117.67,44.1,123.1s-4.22,10.27-.6,10.67,9.26-.6,14.09-.4,4.83-.61,5,2.81,6.24,3,6.24-1.4-1.61-5.24-1.21-11.07S76.91,94.53,79.92,90.9s6.24-11.07,6.85-7.85S94,92.71,97,96.54s11.67,4.83,16.9,7.44,11.88,3.83,11.88.21-4.23-8,.4-8.66,11.58-.92,14.1-5.65,3.16-7.9-2.52-11.69-26.85-9.47-36.64-6-13.58,10.74-12.63,5a16.8,16.8,0,0,1,7.58-12c4.11-2.84,29.05-25.26,28.42-32.53s1-16.42-2.52-13.89-4.42,6.63-4.42.94.63-11-2.22-12.94-8.52-3.16-11-1.58S89.15,21,88.2,33.34s-1.57,25.59-1.57,31.59-2.53,12.31-3.79,6-11.37-37.59-13-44.22S61.36.5,57.89.5,51.57,7.13,51.57,10s-3.16,6.32-3.16,1.58-6-7.58-6-3.15,0,13.26,1.9,18.94S54.73,47.56,59.47,53.56s5.68,8.21,5.68,8.21"/></g></g></svg>