<svg xmlns="http://www.w3.org/2000/svg" viewBox="0 0 641.92 391.34"><g id="Calque_2" data-name="Calque 2"><g id="monograme"><g id="Calque_3" data-name="Calque 3"><path d="M627.42,275.22h14.3a15,15,0,0,1,.2,2c-.1,7.5-.3,14.9-.5,22.4-.1,5.4-.3,10.7-.4,16.1-.2,6-.3,11.9-.5,17.9-.1,5.4-.3,10.9-.4,16.3-.2,6-.3,11.9-.5,17.9-.1,5.1-.3,10.1-.5,15.2-.1,2.3-.3,4.7-.4,7.2H285.62c-.5-1.5-.6-9.8-.2-13.1.5-.1,1.1-.1,1.7-.2,6.5-.1,13,.1,19.5-.2a83.1,83.1,0,0,0,21.6-3.3c9.4-3.1,15.5-9.5,18.4-18.8a57.27,57.27,0,0,0,2.1-10.8c.6-5.5.8-11,1.1-16.5s.4-10.7.5-16.1c.1-11.3.3-22.5.3-33.8V80.72c0-6-.2-11.9-.5-17.9s-.7-11.7-1.3-17.6a47.68,47.68,0,0,0-3.2-14.5c-3.1-7.8-8.7-12.8-16.9-14.5-4.6-.9-9.2-1.5-13.9-2-9.1-1-18.2-.8-27.4-.8-.7,0-1.3-.1-2.1-.1V.22h199.6v13.1c-.9,0-1.7.1-2.5.1-7.2,0-14.4-.1-21.5,0a155.21,155.21,0,0,0-23.6,1.7,63.58,63.58,0,0,0-7.3,1.6c-6.6,2-11.1,6.5-14,12.7a36.91,36.91,0,0,0-3.2,11.8q-.9,9.9-1.5,19.8c-.3,5.5-.4,11-.5,16.5-.1,6.8-.3,13.6-.3,20.4v213.9c0,7.4.1,14.8.5,22.2.3,6.2.9,12.3,1.7,18.4,1.1,8.4,6,14.3,13.3,18.3a37.12,37.12,0,0,0,13.4,4c5.4.7,10.9,1.3,16.4,1.6,18.3,1,36.7.3,55.1.5,2.6,0,5.1,0,7.7-.2,12.3-.6,24.5-1.5,36.5-4.3a63.58,63.58,0,0,0,27.4-14.4c11.2-9.7,19.7-21.4,26.3-34.5a256.34,256.34,0,0,0,15.5-38.9C625.42,281.42,626.42,278.42,627.42,275.22Z"/><path d="M.12,11.92c0-2.1-.1-4,0-5.9s.2-3.8.4-5.6c1.6-.4,123.4-.6,127.5-.2.6,1.3,1.2,2.7,1.7,4.1l30.6,75.3c7.5,18.5,15,36.9,22.5,55.4,9.6,23.6,19.1,47.1,28.7,70.7,7.4,18.3,14.9,36.6,22.3,54.9,7.6,18.6,15.1,37.2,22.7,55.8a4.13,4.13,0,0,1,.2,3.6q-14.25,34.5-28.3,69.2a19.47,19.47,0,0,0-.9,2h-9.8c-1.7-3.9-3.3-7.9-5-11.8-6.7-15.8-13.5-31.7-20.2-47.5-11.7-27.4-23.3-54.9-35-82.3-10.4-24.4-20.7-48.8-31.1-73.1q-17.85-41.85-35.6-83.7C85,79,79.22,65.22,73.32,51.52c-4.4-10.1-10.1-19.3-18.1-26.9-5.7-5.4-12.1-9.5-20-10.9a68.38,68.38,0,0,0-9-.8c-6.5-.2-13-.3-19.5-.5C4.72,12.22,2.52,12,.12,11.92Z"/><path d="M37.22,391.32c-19.3.7-38-16.2-37.2-38.6a37.43,37.43,0,0,1,37.2-36,37,37,0,0,1,37.4,37.4C74.72,376.22,56.42,392,37.22,391.32Z"/></g></g></g></svg>