<svg xmlns="http://www.w3.org/2000/svg" viewBox="0 0 247.86 150.33"><defs><style>.draw{fill:none;stroke:#fff;stroke-linecap:round;stroke-linejoin:round;}</style></defs><path class="draw" d="M69.59,54.58c0-16.43,6.24-42,28.44-46s24.38-8.37,29.11-8,10.19,6.55,14.2,6.92,34.57,6.18,29.11,52c8-8.73,14.92-12.37,27.65-15.28,8.15-1.86,13-2.39,17.76-1.38a35.55,35.55,0,0,1,8.45,3.2c8.73,4.37,29.47,36,21.1,52.4s-21.83,30.2-21.83,34.94-2.91,3.27-8.74,3.27-23.65,5.46-31.29.36-31.3-45.85-28.75-52.4S161,71.12,174.09,69.66s32,.37,37.11-9.82,5.51-14.18,4.77-14.18-17.64-2.39-26.64,2.75-17.09,12.5-21,14.15S153.32,76.34,151.66,80c-3.3-6.79-5-12.41-12-16.28s-21.28-13.54-32.11-13.16S73.15,66.44,68.51,76.11s-3.87,26.69-1.94,34.82-3.48,15.08,0,15.47,1.16-2.32,15.09,0,29.4,10.83,46.81,3.48,27.08-17.79,27.08-25.53-3.48-19.34-5.41-20.5-4.65,1.16-7.36-2.71S132,60.25,116.48,61s-36.37,7.35-38.3,20.5-.39,22.83-1.16,29-4.26,7-.78,6.19,17,2.32,22.83,3.48,16.25,6.19,30.56-1.93,17-15.48,16.64-23.22,15.08,1.94,12.38,14.32S142.4,142.26,125.38,143s-26.7,3.48-36-4.26-10.56-10.91-13.74-10S90.28,138,86.79,142.49s-5.73,7.3-5.73,5.4.64-9.22-1.58-5.72-5.41,4.45-5.41,3.18-11.12,7.31-9.53,3.49,5.08-9.22.32-6-11.44,7.31-11.44,5.41S53.1,146,46.74,146s-5.08-2.86-2.22-3.81-12.08,1.27-10.49-.32,1.27-4.77-.64-4.77-8-.47-5.86-1.53-9.24,0-7.92-1.32-9-1-7.13-2.64-9,.27-11.36-.53,2.64-6.34,5.81-6.34,6.87-.26,5.28-1.84-4-3.44.27-5-3.44-4,2.11-5.28,5.28-4.76,3.7-5-1.06-2.64,4-3.44,11.62-1.32,6.07-3.43-8.45-4.75-1.85-5.55,12.68-.79,9.25-3.43-8.72-6.34,0-6.07,12.41,1.85,10.3-.53-5.81-6.34-1.32-6.34S55,77.71,56.58,77.71s6.08,5.55,4.49.8-2.38-5,3.17-5.55,9.51-4.75,7.92-7.66"/></svg>
