<svg xmlns="http://www.w3.org/2000/svg" viewBox="0 0 230.35 234.3"><defs><style>.draw{fill:none;stroke:#fff;stroke-linecap:round;stroke-linejoin:round;}</style></defs><path class="draw" d="M13.38,137.06C1.13,102.34-20.46,38,51,8.15S168.67,43.61,176.55,69s1.45,38.81-1.84,43.75-30.86,9-38.68,24.28c-2.06,3.29,18.11-22.22,47.74-25.1s25.1-.41,25.1-.41-4.12,32.09-25.93,49.79c22.63,7.82,42,26.74,46.91,38.68a65.4,65.4,0,0,1-73.65,4.94c9.87-10.7,28-49,16-77.78C153.31,137,133.56,143.15,123.69,144s-21,6.18-37.45,7S33.16,149.74,27,149.74s-11.52,14-11.52,20.16,13.17,70.37,80.25,63.37c35.47-4.48,50.63-20.66,54.74-25s16.44-24.92,18-31.34,7.2-26.21,1.29-43.16c-.52-2.83-4.37-2.06-6.17-.77s.52,5.91.52,10.53,5.13,32.89-17.22,53.44-29.95,22.37-40.31,24.44-35.24-1-40.08-6.57-2.42-7.6-10-11.4-7.6,4.15-14.17-15.2S36.4,154.35,36.75,153s.56-1.16,4.52-1.16,47.09,1.54,50.17,1.54S62,197.79,60.19,200.21s.66,2.2,1.76.66S91,154.45,93.86,154.23s6.38-.22,6.38,2.2-3.74,59.84-2,60.06,1.76-60.28,3.52-60.5,3.74,9.46,6.82,8.14,1.32-10.34,2-10.12,36.08,39.16,38.06,38.06-33.88-37.4-35.42-39.38-1.76-4.84,1.1-4.84,38.06-8.14,40.48-8.14"/></svg>
