<svg xmlns="http://www.w3.org/2000/svg" viewBox="0 0 377.83 265.78"><defs><style>.pourpre{fill:none;stroke:#fff;stroke-linecap:round;stroke-linejoin:round;}</style></defs><path class="pourpre" d="M323.7,265.28c-8.51-1.55-9.28-18.58-16.25-18.58s-20.12-19.35-28.64-19.35-40.24-14.7-48.75-13.93-24.77,3.1-24.77,12.39,1.55,16.25-4.64,13.15-17.8-7.74-23.22-7-24,5.42-31,5.42-17.8,0-25.54-.78-11.61-5.42-18.57-7.74-20.9-12.38-25.54-12.38-17,6.19-22.45,2.32,3.87-17.8,10.84-21.67,7-10.06,7-23.22-3.09-30.18.78-41S85.2,86.87,90.25,78.44,99.52,73,99.52,62.85s-1.26-14.74.84-20.22,4.64-10.11,0-10.11S98.68,30,90.67,28.31s-15.59-3.8-20.22,1.26-6.74,9.27-11.8,6.32-3.37,22.33-7.16,23.17-5.05,7.16-7.58,14.75-3.79,16-5.48,19.8-1.68,11.37-3.79,11-8.43-8-11.38-14.74.42-12.22-3.37-16.43-8-6.74-10.53-13.91S.93,45.58.51,40.1s9.69-9.27,13.06-8.84,8,0,12.64,0,16-.43,19.38,0S60.76,34.63,59.5,41s-2.11,18.11-4.64,20.22-3.37,2.11-5,5.48S39.69,104.56,36.75,109.2s-2.11,13.06-4.64,13.9-1.68,8.85,1.26,10.11,1.69,6.74,8.43,8.85,8.43,8.43,12.64,9.27,19,7.16,20.22,4.21,1.27-7.16,5.06-27.81,8-27.8,9.69-33.28,1.68-17.69,11.37-19.38,3.37-19.38,3.8-26.54-.43-11,3.79-14.75,9.69-4.21,10.53-9.69,3.79-12.64,7.16-12.64S132.8-2,138.7.92s3.79,11.8,7.16,15.17,14.33.42,14.33,5.05,8,10.12,11.37,10.12,11.8,8.42,11.8,9.69S197.6,48.12,197.6,67.4s-.55,52.31,22.58,68.28,60,28.64,71.59,27.54,13.77,3.85,18.17,3.3,3.86-6.61,8.26-3.3,21.48,25.33,25.89,29.74,12.11,20.37,5,16-31.39-23.68-36.34-28.64-.55-3.85-16-1.65-44.06,2.75-65.54-13.77-20.93-22.58-29.74-29.74-17.07-38-15.42-50.66-1.65-30.29-4.95-34.15,2.2-12.66,11.56-14.87,12.67-11,21.48-13.21,5-16.52,14.87-16.52,15.42,15.42,21.48,16,19.82,0,30.84,3.85,16.52,11,23.68,9.91,30.29,29.74,33,39.66,12.11,30.28,12.11,39.1,4.41,8.81,4.41,15.42-6.61,29.73-5.51,39.1,9.36,23.68,16,26.43,14.87,20.38,11.57,20.93-17.62,2.2-14.32,5.5,12.67,11,6.61,13.77-16.52,13.77-22,13.22S332,258.49,332,258.49s6.35-10.05-2.57-24.71-30.59-37-42.7-37.6-22.94-5.1-33.78-7-9.56-.63-18.48-3.82-8.92-5.74-17.2-5.74-12.11.64-17.85-3.18-4.46-7-15.29-8.29-3.19-4.46-13.39-5.73-11.47,0-17.84-7.65-8.28-5.1-15.29-7,1.91-14-4.47-13.38-12.1,1.91-18.48-1.28S103.8,122.9,103.8,117.8s13.38-8.29,14.66-12.75,5.73-15.29,12.74-10.19,15.93,17.2,23.58,16.56,15.3,1.92,15.3,4.47"/></svg>
