<svg xmlns="http://www.w3.org/2000/svg" viewBox="0 0 217.86 155.88"><defs><style>.cls-1{fill:none;stroke:#000;stroke-linecap:round;stroke-linejoin:round;}</style></defs><g id="Calque_2" data-name="Calque 2"><g id="Calque_2-2" data-name="Calque 2"><path class="cls-1" d="M21.1,118.92C14.09,107,3.56,83.44,6.68,82.27s10.72-3.51,17.54,0,8.89,8,12.44,8.45,9.23.24,10.53-2.13-.83-2.13-4.14-1.77-5.09.83-6.74.23,2.11-.79,3.31-1.29.5-1.4-2-1.5-4.5-2.1-3.5-4.8,2.8-3.7,5.7-3.9,6.61.7,5.71,4.1-4.51,3.7-3,3.7,5.2-.8,5.1-3.2-2.2-5.2-.5-4.2,5,6.2,5.3,2.7,2.6-11.8.7-13.6-5.7-3.7-4.9-4.8-.8-2.9.6-4,3.1-3.1,5.7-3.4a8.2,8.2,0,0,1,5.4,1.6c-2.6,2.4-2.3,3.1-5.3,3.5s-7.4,1.2-9.5.4-10.51,0-14.21-2.9-5.8-3.2-7.7-2.1-2,1.2-1.2,1.7-.5,3.1,4.4,3,3.82-2.69,4.9-.1,1.77,6.8-.54,7.75-2,5.57.41,7.61-3.4,1.9-3.54,4.35,1.63,6.12-1.09,4.21-11.41-5.3-20.79-1.22S2.09,56.73,3.59,54.15A14.44,14.44,0,0,0,5.22,43.28c-1.09-4.63-3-15-2.58-17.68S-.9,4.26,1.82,2.49,7.4,0,12.83,3.72s13.06,13.18,18.36,14,8.29,6.12,15.63,1.09S65.58,1.13,69.93,1s5.58-1.91,7.34,2.17,1.5,5.44,2.18,7.61S79,21.25,78.77,24.24s1.09,8,.54,11.56-2,9.92,2.31,11.83,8.3,7.2,6.53,17.4,3.12,17-8.29,17.26-16.45,4.22-16.59,7.48.95-2.58,5.71-3.94,9.65-2.59,14-2.45,8.43-.27,7.34-7.34-.62-16.73,1.11-18.81,10.4-2.25,13.86-2.6,15.59-3.29,25.64-2.77,20.79,5.72,32.22,6.06,20.45,2.77,30.49,13.17,14.9,28.41,17.67,39.85,12.48,23.21-.69,31.53-29.8,11.08-45,9.35-23.56,2.43-36.73,2.77S71.68,157.36,53,151.47s-20.1-2.07-24.95-8-10.74-24.94,6.24-34.64,21.83-8.32,37.07-8,18.37-3.12,27.72-3.47,13.52,0,27.38-1,21.48,1.39,31.87,7.28,8,14.55,15.25,13.51,24.6,4.16,20.09-4.16"/></g></g></svg>