<svg xmlns="http://www.w3.org/2000/svg" viewBox="0 0 260.76 260.91"><defs><style>.cls-1{fill:none;stroke:#000;stroke-linecap:round;stroke-linejoin:round;}</style></defs><g id="Calque_2" data-name="Calque 2"><g id="Calque_2-2" data-name="Calque 2"><path class="cls-1" d="M132.81,93.53c-3-1.93,3.31-4.42,5-6.9s-3,0-7.73,3.31-4.41,2.48-6.9,8,2.76,4.7,7.45,4.7,5.52-5.25,12.42-5.8,1.11-6.62,4.42-11-3.59-4.14-8-4.41-5.25.82-11.32.55-8,1.65-13,11,.83,10.48,8.56,14.62,14.07-.55,19.31-1.93,4.69-12.69,9.66-16.83-.83-10.77-3-13.8-9.39-3.31-16-1.11-7.73,3-12.69,1.94-5-.56-8.28,7.72-6.35-1.65-9.39,2.49,1.94,14.9,8.56,22.9,14.07,5,24,5.8-3.31,5.24-11,7.17-16.84-6.9-22.91-10.48-4.14-17.11-4.69-25.94,4.14-12.42,10.49-17.39,9.66-1.93,14.35,1.65,9.38-7.72,17.39-9.65,11,1.38,17.11,11,5.52,24,5.52,34.78.82,6.34,6.07,6.07,11.31-.83,17.93-11.87-8.27-21.8-13.24-28.42-10.76-3.59-10.76-9.39-10.49-8.28-18.22-9.1-8.28-.83-12.14-3.87-9.66-13.52-17.11-15.18-12.7,6.08-17.39,10.49-7.45,10.76-1.93,14.63,7.18,1.38.28-3-12.42-1.38-17.94,6.35,0,13.8,2.21,24.29,14.35,20.14,17.66,30.9,1.38,9.39,10.48,11,5,2.21,16,2.49,11.87-6.63,17.94-9.39,21-6.07,32-5.79,11.87-.83,17.94-8,0-29.53-4.14-35-25.11-22.36-30.91-27-16.56-8.83-26.49-10.76-13.25-9.94-23.74-9.94S72.93,45.79,66.85,66.48s8,36.16,14.08,40.3,5,11,5.24,16.28-21.8,1.93-23.18,8,14.35-.83,22.08-.83,14.35,11.32,17.11,12.15S88.66,144.31,92,146s17.11,9.11,28.15,14.08,21.25.83,26.49.27,54.92-41.94,43.33-43.6-34.22,32-35.05,35.32,1.93,3.59,6.07,8.28,22.36,3,30.36-3.86,11.31-23.18,11.59-36.43,3.86-17.94,5.52-21.52.55-4.14,1.38-7.73,2.21-5.52,1.93-12.7-8.36-19.75-8.17-25-3-7.17-9.06-7.17-15.09,11.88-16.6,13.2-3.21-1.69-4-4.34-4.72-4-5.29-1.69.2,4,2,3.74S171.29,45,167,38.59s-7-7.58-12.12-9.4-14.86-3.64-20.62-4.55-17-3.33-21.83-3.64S95.8,21,91.55,21s-4.24,1.22-13.64,3.64-13,10.31-17,17-17,25.46-19.7,37-.23,28,4.29,31.93,4.92.59.59-2-15.34-.2-17.31,2,2.33,14.39,7.61,15.15S42.2,133.47,53.52,143s25.15,18.36,28.17,23.14,8.3,6.29,15.59,13.08,25.15,8.55,32.44,5,6-15.6,3.52-20.37-.25,9.3.51,17.1,11.06,11.57,16.35,16.09,6.53,2.77,10.31-.25,7-1,11.31-2.51,3-9.06,12.08-5,15.09,31.44,17.35,34.2,22.89-.5,33.45-5.28,22.13-25.9,23.64-33.95-2.51-11.57-3-16.1.25-5.28,2.76-6,2.27-8.55,2.27-12.82-9.06-34.21-10.57-37-6-5.29-12.07-11.82-7.29,7.29-5.53,6,5-17.1,5.28-23.64S235.1,70.6,234.1,65.57s-3-11.07-8.3-14.59-12.46-15.26-14.45-17.25-5.64,7-5.64,1.66S193.1,18.8,185.14,16.48s-15.26,2-14.27-2.66-2.32-5-7-5.3-11.61-5-15.59-4.32-3.65,1.66-3.65-.33-6.31-5-21.24-2.32-19.57,8.62-24.55,13.6,3,3.65,5,4,2-10.95-1.66-11.94S86.61,5.86,77.32,5.86s-12.94,3-17.91,10.62S52.11,29.75,46.8,31.41s-8,2.32-17.91,8.29S16.28,54.63,15.28,61.59,9.65,70.88,6,76.86s-4.32,7-5.31,20.23,2,25.21,8.29,34.83S60.4,163.44,67,164.44,79,165.76,77,162.78,11,132.59,6.33,137.9s-4.32,20.23,0,21.89,3.32,4.31,3,9.29,5.64,5,9,5.31,4,4,4,7.63,6,4,3.65,8.62,3,17.25,6.64,19.58,7.63,6,16.91,8,39.81-48.1,34.84-47.44S61.4,184.67,55.76,197.61s-3,20.57,2,31.85,16.74,18.86,29.4,24c0,0,8.69,7.34,15.12-.5s4.42,5.83,10.44,3.62,6.23-2,11.46-2,4.62-3.82,7.43-4S135,260,150.49,260.4s21.5-6.23,27.93-10,17.48-18.89,17.48-18.89"/></g></g></svg>