<svg xmlns="http://www.w3.org/2000/svg" viewBox="0 0 247.42 291.78"><defs><style>.cls-1{fill:none;stroke:#000;stroke-linecap:round;stroke-linejoin:round;}</style></defs><g id="Calque_2" data-name="Calque 2"><g id="Calque_2-2" data-name="Calque 2"><path class="cls-1" d="M121,290.39c0-13.7,1-38.27-2.36-45.35s-14.17-8.51-8.5-5.67,12.75,10.86-3.31,17S69.53,259.68,62.91,262s-11.1,4.91-11.1,10.71-7.5,14.65-15.34,16-10.9,2.38-10.9,1.36,9.2-10.91,13.29-17.73,5.8-9.54,12.27-11.25,30-11.93,41.25-14,13.64-5.46,13-7.84S98,232,93,230.55s-14-7.26-21.52-7S45.33,234,39.23,243.06,27,265.45,25.56,273.59s-3.44,10.77-2.5,13.4,5.08,2.63,6.58.57,9-10.9,11.46-15,3.2-7.14,7.89-8.83,16.17-6.39,21.24-7.89,16.91-6.76,20.48-7,8.83-.19,12.4-3.2,5.27-4.69,4.33-6.57,3-4.4,5.81-2.91,3.65.67,1.16-3-8.12-16.58-16.74-16.42-19.53,5.65-22.19,5.65-7.14-1.49-15.28,2.49S43.26,236.7,41.1,238.69s-10.46,7.81-17.6,9.47S3.24,254,.91,253.48,6.56,247.5,12,245,36,235,45.75,228.56s21.76-11.62,28.4-13.28,9.14-6,13.12-6.31-4.32-3-8.8-6.64-7.31-11.13-18.1-10-9.3,2.49-14.62,2.82S35.46,198.67,31,201.83s-11.29,6.81-16.27,15.94S3.74,244,2.24,247s-.66,6.14,2,4.32a75.27,75.27,0,0,1,14.44-7.64c5.15-1.83,16.44-6.48,20.76-9.14s9.63-6.14,13.62-8.63,12.29-6.48,15.61-7.31,13.12-4.15,15.78-6,3.82-5.15,10.63-5.15,13.28.34,11.79,3-5.65,2.33-4.15,4.32,4.31.33,7.14,1.83-1.79-9.71-5.75-14.77-16.6-6.77-25.36-23.5-13.15-12-21.51-31.87-18.33-42.23-18.33-48.6,5.18.39,11.16,8,32.26,47,39.43,60.55,12.75,23.91,14.74,26.3-.39-3.19-.39-10.76-2-16.33,7.17-17.93-8.37-18.72-16.34-30.27-40.63-39-47.4-39.44-7.73,1.83-3.19,8,21.28,28.45,24.63,34.43S91,173.81,95.25,181s9.09,14.35,11.48,18.41,1.91,12.43,7.17,17.46,4.54,20.56,5.26,22.47,1.2-3.35,2.63-6.22,3.83-.95,2.63-10-1.16-22.83,1.54-30.92,1.35-19.39,6.47-25.32,12.39-12.13,16.7-13.47,10.51-3.78,9.43-7.55-6.55-5.52-8.14-6,5.47-9.88,9.17-17.64,13.93-29.45,13.93-36.86,5.81-11.94,8.42-18,14.82-39.79,14.82-50.83,2.61-14.81,0-15.68-48.51,100.49-52.57,111.81-11.9,23.85-17,27.13-4.45,15.21-6.56,15.91-6.08,0-7.25-7.25-6.55-3.28-7-21.3,7-38.84,13.81-49.37,22.46-29.49,26.67-35.81,6.79-9.36,14.75-18.48S187.05,2.06,191.26.89s7,.24,4.22,4.68-39.55,85.88-42.36,91.27-14,32.29-16.38,34.86-4,4.21-.93,4.45,9.14,2.33,11.24,2.71,3.62,2.29.57,1.72-12-5.15-15.64-2.86-7.43,6.1-7.62,9.53-.19,10.68-3.62,12-4.17,4.41-6.3,4.84-7.67,1.91-8.31,5.11-1.71,17,0,21.95,2.34,7,3.19,10,1.71,9.8,3.84,12.15,4.16,3.47,4.71,7,2.57,15.81,2.21,21.15c.36,3.13,1.1-4,4.59-8.46s4.42-6.07,8.46-6.07-1.65-2.39-1.83-7.54S123.66,202,135,191.85s35.45-16.27,50.56-15.11,23.83,3.49,29.93,5.81,13.07,4.36,20.34,6.4,12.49,6.68,10.75,8.13-1.45-1.16-11.33-.87-68.29,9.88-80.79,9.88-16-1.45-19.17.87-2.62,11-.29,11.92,7-5.53,18.88-7.56,23.83,2.62,27.32,5.81,17.43-4.65,24.12-4.94,26.73-8.13,32.83-10.75,9-6.39,4.36-6.39-7.84-.87-25,1.16-45.62,7.26-51.14,7.26-27.9-.29-30.8.88-6.42,6.54-1.45,18c1.55,3.57,1.55,1.7,3-.47a16.6,16.6,0,0,1,7.3-6.21c3.72-1.71,9.16-3.88,16-2.95s13.35,1.09,18,4.81,18.86,11.57,25,20.05,6.58,12.93,2.12,11.45-22.68-7.42-30.73-7.63-30.31-9.54-35-10.6-5.72-1.91-3.39-2.33,29.46,9.32,32.86,10.17,16.53,2.76,23.31,4,18.66,5.3,13.15,10.17-13.78,5.09-26.08,5.51-32.22-2.54-42.6-5.93S119.65,241,120.93,245s3.66,18.17,3.3,46.25"/></g></g></svg>