<svg xmlns="http://www.w3.org/2000/svg" viewBox="0 0 347.52 405.39"><defs><style>.sesame{fill:none;stroke:#fff;stroke-linecap:round;stroke-linejoin:round;}</style></defs><path class="sesame" d="M158.28,404.89c.34-12,2.67-19.69,0-22.35s-7.34-10.68-15.35-8.35-50,7-62.05,9S7.14,396.88,3.47,398.55s-5-2.67,2.34-7.67,49.37-26.36,69.06-28.7,56-1.33,68.4,2.67,16.35,4.34,16.35-1,2-41,2-46.71,3.33-16.35,0-16.68-14.5-5-21.75-15.71-10.73-28.43-2.14-29,5.09-3.49,6.44-8.85,9.39-6.17,14.48-9.39,7.25-6.44,12.07-6.44,11.81-1.07,12.88-4-3.49-.54-6.44.8-8,0-10.73,1.88-8.31,6.17-9.66,6.17-2.41-7,1.35-28.44,3.48-22.53,3.75-25S130.78,160,110.4,157.27s-51.35-4.7-69,2.75-23.91,11.36-16.85,1.17,43.9-20.77,60.36-20,62.72,12.15,73.3,21.56,12.19,7.58,10.58,9.41-8,10.86-4.82,8.45,6.5-7.63,7.45-9,.28-5.73,3.42-6.14-7.66-3.75-8.17-5.8-1-22.87,2.31-28.78,4.63-9,1.54-9-7.19,1.54-20.55-17.21-37.51-51.65-44.71-55.24S84.72,37.64,76.5,35.07s-.77-5.4,4.62-4.62,39.06,17,47,21.58,23.12,26.2,25.18,27.75-4.37,2.89-4.2,6.44,3.89,8.44,8.45,6.42,16.22-.85,22.3-.34,15.88,6.42,17.06,6.59,8.8-10.17,1-13.82-13.21-4.55-21.87-2.28-21-3.41-17.31-4.78,11.85.68,16.86.91,16.4.23,27.33,4.79c3,1.36,3.88-1.6,5.24-2.74s.23-.45-.91-7.06S206.64,63.2,205,57.05s-8-23-12.75-25.74-17.09-3-15.27-8.43,9.57-3.19,14.36-2.5,11.16,3.41,18.68,17.08,7.29,34.63,8,36.45,3.19.46,3.19-2.51,3.64-9.11,7.74-18,26.88-32.81,34.17-38.27S288.19-.35,293.2.56s-5.46,11.62-6.6,13S256.07,53.86,253.79,56.6s-1.36-1.37-3.87-3.65-2.73,4.33-7.29,7.52-11.84,9.34-4.1,10,10.48-2.28,13.21-5.24,17.54-13.44,31.9-15,25.51-1.37,26.88,0S298,62.06,291.15,64.8s-23.46,6.83-25.74,8.43-3.42,4.1.23,3,16.17-7.29,31.21-7.06,42.37,5.92,47.38,8.65,2.28,8.43-.46,8.43-23.69-.91-30.52-.68-38.73,1.36-44.42,3.41-8.66,7.75-12.53,8,.68,5.92.23,7.06-22.1,10.93-23,11.39-8.88,6.15-2.73,9.34,32.57,38,32.34,42.6-6.37,7.52-4.55,7.52,7.29,4.1,4.33,9.56-5,10-11.85,9.8-12.76,1.37-16.17-.23-2-1.59-3.88-6.15-12.75-12.76-15-21.87-14.35-32.57-13-35.08,20.28,2.28,21.87-2.73,5-14.81.91-16.18-12.07-5.46-17.76-9.11-10.26-1.14-9.57,6.15-3.65,12.3-.69,18.91-1.82,26.2-3.18,32.35-4.79,6.15-9.12,4.55-6.38-.45-3.19,1.37a104.05,104.05,0,0,0,11.17,5.47c5.69,2.5,21.91,20.41,29.68,28.18s15.2,18.25,15.2,22.64,1.36,5.74-7.43,1.69-10.37-7-16.89-3.62-4.83,6.76-9.66,4.83-8.21-3.38-11.59-1.45.49,1.45,4.35,1.93,8.69,4.34,12.55,1.45,8.93-5.07,10.38-5.07,10.62,6.51,15.69,6,4.35-1,8.94-1,2.89,4.34,6,7.24,5.79,6.76,9.41,7.72,3.87,9.9-1.2,9.66-15.45-1-20.28-5.31-4.34-7.73-11.83-8S206,235,201.68,235.74s-9.42,4.82-5.56,7.72,8.94,7,5.8,9.17-10.14,4.83-18.83,3.14-11.59-3.62-8.69-8.21,12.55-4.82,14.24-7.24,8.21-2.89-9.65,0-16.42,8.45-18.11,16.18,1,22,8,25.58,7.72,12.56,15.45,8.94,15.69-2.42,21.48-11.83,17.14-13.28,22-21.25,5.79-11.1,8.69-9.17,18.59,4.83,22.93,5.31,7.24,1.69,6.28,10.14-8,20.28-17.87,24.86-29.21,12.8-30.9,11.11,4.59,4.1,1.21,8.69-11.83,8.45-22.21,8.69-13,4.83-19.79,1.21-9.66-15.94-9.9-13.76,10.86,16.89,10.38,21.48-1.93,35.24-1.93,42.24-2.17,19.07.48,14-2.41-12.07,2.66-15.21,16.65-17.62,26.79-20a37,37,0,0,1,27.28,4.83c6,4.1,22,0,20.76,10.14S246.09,382,242,382.26s-2.9.49-5.31-7-1.93-11.34-8.69-9.89a249.39,249.39,0,0,0-31.38,9.89c-9.66,3.86-17.38,14.49-21,15.93s-3.14,8.69-2.9,12.32"/></svg>
