<svg xmlns="http://www.w3.org/2000/svg" viewBox="0 0 188.8 288.34"><defs><style>.cls-1{fill:none;stroke:#000;stroke-linecap:round;stroke-linejoin:round;}</style></defs><g id="Calque_2" data-name="Calque 2"><g id="Calque_2-2" data-name="Calque 2"><path class="cls-1" d="M84.87,287.84c-12.62,0-28.35-3.88-33.12-12.31s-3.67-15.77,9.16-22.73c-5.49-12.1-28.23-65.63-31.16-75.53s-8.43-41.79-9.16-47.66-5.14-18.33-5.14-23.09-3.3-25.67-7-33.73S-5.44,33.56,5.19,22.56s22.36-15,28.59-12.46,4.4,4,9.17,4.76,11.73,6.6,12.1,8.8,5.5,30.8,3.3,36.66,1.46,7-5.5,11.37S47,80.12,41.12,83.05s-14.3,12.47-15.77,15.4c.74-9.53.37-16.86-2.56-23.1S12.15,44.92,13.25,38,18,21.09,26.09,20.36,37.82,19.63,41.85,24s7,24.56,9.53,28.23-.94,21,5.07,19.6,4.64-9.56,4.64-14.74-1.37-32.76-3.28-36S52.62,14,49.35,14,36.06,10.49,35.61,7.3,39,1.84,54.5,1.16s74.18-1.37,89.43.91,8.42,4.09-2.5,4.78-91,2-93.31,0-3.41-3,4.33-3.42,100-3.81,98.75,4.43-10,7.23-13.23,8-11.73,6.49-11.73,13.23-3,35.68,3.25,38.93c1.94,1.17,2.39.5.59-3.55s-3.82-29-1.57-33.48S135.25,12.54,155,11s27.84,12.44,30.64,16.3,3.85,25.92.7,32.93-15.06,37.13-15.06,45.54-3.16,7.7-3.16,11.56,1.41,15.06-2.1,15.41-5.6-24.87-4.2-29.43,9.11-33.28,13-41,7.36-35-5.25-38.89-29.78-2.8-34,13.31S136,65.26,133.8,68s-2.16,4.32,1.08,5.94a14.68,14.68,0,0,1,6.22,5.94c.81,1.62,14.31,9.46,18.09,19.72s7.3,32.69,2.71,52.4S140,217.6,136,224.63s-13.23,26.47-10.8,29.17,9.45,4.32,10,10.27,3.24,19.44-30,23.5"/></g></g></svg>