<svg xmlns="http://www.w3.org/2000/svg" viewBox="0 0 193.46 165.32"><defs><style>.draw{fill:none;stroke:#fff;stroke-linecap:round;stroke-linejoin:round;}</style></defs><path class="draw" d="M44.82,164.82c-10.37-1.24-11.1-6-16.2-6.35S15.13,154.1,14.41,149,4.2,132.6,3.84,125.31-5.28,95.78,7.12,84.85,27.89,69.18,33,69.18s11.5.26,13.63,1.86-6.26,3-5.66,4.25,1.61,2.41.6,2.41-13.08,2.82-16.91,4.84,3.63-.61,8.86-1.81S43.78,77.5,46.2,77.5s6.84,2.22,8.86,2.42,4.83,1.21,7.65.6,4.83.61,9.26,4,13.69,22.75,13.29,33.83.8,13.69,1.21,11.88.8-17.92-1-23.36S79,87,74.59,84.15,64.12,78.51,62.3,78.51s-5-1.41-6.84-3,2-3.3-.87-7.22S43.26,54.76,48.7,41.68s8.94-20,14.6-21.79S69.84,14.23,77,14.23s13.07-.22,14.6.65,2,3.49,2,6.1-1.52,5-2.4,3.05-5.44-7-5.23-3.48,1.31,5.23-1.09,5.23-3.48,3.48-.87,3.7,7.85,0,9.16.87,5.44,4.8,7.19,4.8,7.4-1.09,7-4.36S99.47,28.61,99,24.9s.43-6.75,2-11.54S106.45.5,104.05.5,97.73,3.11,96.21,11s-3,9.61,4.6,8.08,8.48,2.89,13.57,3.9,13.23,9.84,13.23,13.41,1.19,6.27,1.19,7.8,1-3,6.45-3.39,8-.34,9.67-.34c.85-3.73,1-10.86,2.71-10.86s1.53,1.87,1,3.73-1.87,6.79-.68,7a86.21,86.21,0,0,1,9.5,1.53c3.22.84,6.45,5.42,9.16,6.27s7.13,5.77,10.18,7,10.85,1.83,12.09,11.28,5.22,13.68,3.73,20.9-3,19.15-9.7,23.38-8,10.2-12.93,10.2S163.53,126,156.57,126s-11.45.5-16.92-2-8-.25-13.93-2.74-19.89-9.2-20.39-14.92-5.72-11.94-5.72-19.4,2.24-22.39,5.47-26.12,9.7-12.93,15.17-12.93,11.19-1.49,11.44,1,7.46,10.45,9.21,10.45,9.95,1.74,11.44-2.49-5-18.65-4.73-13.68-1.74,5.23.25,7.46,4.73,6.22,1.49,6-8.45,0-10.44-4-3-5.72-5.48-6-8-1.24-10.19-1a21.55,21.55,0,0,0-13.93,7c-5,5.72-10,14.43-10.45,20.15s-1.49,15.17-4.48,10.95S82.2,70.77,72.74,71.27,62.05,75,62.05,75s-1.49.75,3.48-.5,10-1.74,13.43-.5,14.18,9,17.16,16.17,6.22,12.44,6.22,16.42,0,21.14-7.93,33.08-9.1,13.08-13.08,14.79S70.7,156.41,66,158.78s-11,5-13.15,5"/></svg>
