<svg xmlns="http://www.w3.org/2000/svg" viewBox="0 0 124.74 113.03"><defs><style>.cls-1{fill:none;stroke:#000;stroke-linecap:round;stroke-linejoin:round;}</style></defs><g id="Calque_2" data-name="Calque 2"><g id="Calque_2-2" data-name="Calque 2"><path class="cls-1" d="M64.05,112c-11.77-.55-15.88-4.65-21.36-4.65s-4.93.54-8.48-3.29-14-6.84-18.35-14S-2.48,62.41,1.07,47.35s7.67-29.84,11.5-29.84,12.6,6,7.94,15.06-3,0,11.23,4.38,32,9.58,17,11.22-26.56-3.28-29.85-.82-2.74,12.32-1.09,9.86,10.68-3.29,20-4.38S49,54.2,50.36,54.75s5.75,2.19-2.46,9S38,78.57,34.48,75s-17-18.07-14.79-13.69S33.11,79.39,35.85,79.39s7.39-1.64,12-8.76S55,56.11,59.67,58.31s3,12.32,1.37,20.53-7.12,6-13.69,4.11S34.48,84,42.42,87.33s16.7,5.75,20,4.38,3-10.13,3.83-18.62S65.15,63,68.16,61.59s4.65-2.19,8.21,6.3,18.35,15.33,9.31,18.89-17.25,1.37-17.25,3.83.82,6.58,12,3.84,14.24-6.57,12.87-9.59-6.3-6.29-9.59-12.32S73.36,59.4,75,57.76s2.47-3.56,8.76.27,9.31,9,14.79,10.41,9.31,8.48,4.11,11-9.59,11.5-4.66,9,16.43-11,16.16-13.69-7.67-7.39-11.78-9.31-17-11-19.44-11.5S76.65,49,81,49s22.72.54,26.28-1.1,6.85,11.5,4.38,14.24,1.1,12.59,4.38,8.76.55-11,.28-18.34S114.16,37.5,109,38.32s-8.76,4.1-17.52,4.93S72,44.89,76.37,41.33s10.95-12,11.5-15.06,5.2-1.92,7.67,1.64,8.76,11,10.68,8.49-6-18.62-12.6-19.17-8.21,4.39-11,9.86S76.1,37.22,72.26,37.22s-5.2,1.1-5.2-7.66S63.5,14,66.79,14s10.68,1.92,14,4.93S87.87,14.77,84,13.4s-9.86-6-20.26-6-1.1,9.31-1.37,14.78S69,36.4,63.5,37s-9-1.64-13.14-11.78-5.75-13.41.27-13.69,7.67-4.92,1.92-4.92S37.76,7.93,38,10.39,50.91,32.29,51.46,35s5.75,6-2.2,4.38S21.06,29.56,24.9,24.63,39.41,8.75,34.48,10.39s-14.24,8.76-15.33,6S35,1.08,52.28.53s35.59,6,38.88,8.76,17.25,12.87,18.89,17,4.93,13.14,8.49,17.52,7.66,13.42,4.65,21.63-10.4,20.81-13.69,24.65S97.73,109,86.5,109s-18.89,3.83-20.26,3.56A18.6,18.6,0,0,1,64.05,112Z"/></g></g></svg>