<?xml version="1.0" encoding="utf-8"?>
<!-- Generator: Adobe Illustrator 25.1.0, SVG Export Plug-In . SVG Version: 6.00 Build 0)  -->
<svg version="1.1" xmlns="http://www.w3.org/2000/svg" xmlns:xlink="http://www.w3.org/1999/xlink" x="0px" y="0px"
	 viewBox="0 0 1001.1 1001.1" style="enable-background:new 0 0 1001.1 1001.1;" xml:space="preserve">
<style type="text/css">
	.st0{display:none;}
	.st1{display:inline;}
	.st2{fill:#F2B01C;}
	.st3{fill:#E26938;}
	.st4{fill:#C83188;}
	.st5{fill:#11040D;}
	.st6{fill:#58173D;}
	.st7{display:inline;fill:#F2B01C;}
	.st8{display:inline;fill:#E26938;}
	.st9{display:inline;fill:#C83188;}
	.st10{display:inline;fill:#58173D;}
</style>
<g id="Calque_1" class="st0">
	<g id="cercle1" class="st1">
		<circle class="st2" cx="500.5" cy="500.5" r="500.5"/>
	</g>
	<g id="cercle2" class="st1">
		<circle class="st3" cx="500.5" cy="500.5" r="400.4"/>
	</g>
	<g id="cercle3" class="st1">
		<circle class="st4" cx="500.5" cy="500.5" r="303.2"/>
	</g>
	<g id="cercle4" class="st1">
		<circle class="st5" cx="500.5" cy="500.5" r="208.4"/>
	</g>
	<g id="cercle5" class="st1">
		<circle class="st6" cx="500.5" cy="500.5" r="99.2"/>
	</g>
</g>
<g id="linesbackground" class="st0">
	<rect x="414.4" y="2.6" class="st7" width="40" height="1000"/>
	<rect x="454.4" y="2.6" class="st8" width="40" height="1000"/>
	<rect x="494.4" y="2.6" class="st9" width="40" height="1000"/>
	<rect x="534.4" y="2.6" class="st10" width="40" height="1000"/>
</g>
<g id="Calque_3">
	<g>
		<path d="M837.7,580.1c4.9,0,9.5,0,14.3,0c0.1,0.7,0.2,1.4,0.2,2c-0.1,7.5-0.3,14.9-0.5,22.4c-0.1,5.4-0.3,10.7-0.4,16.1
			c-0.2,6-0.3,11.9-0.5,17.9c-0.1,5.4-0.3,10.9-0.4,16.3c-0.2,6-0.3,11.9-0.5,17.9c-0.1,5.1-0.3,10.1-0.5,15.2
			c-0.1,2.3-0.3,4.7-0.4,7.2c-117.7,0-235.4,0-353.1,0c-0.5-1.5-0.6-9.8-0.2-13.1c0.5-0.1,1.1-0.1,1.7-0.2c6.5-0.1,13,0.1,19.5-0.2
			c7.3-0.3,14.6-1.1,21.6-3.3c9.4-3.1,15.5-9.5,18.4-18.8c1.1-3.5,1.7-7.2,2.1-10.8c0.6-5.5,0.8-11,1.1-16.5
			c0.2-5.4,0.4-10.7,0.5-16.1c0.1-11.3,0.3-22.5,0.3-33.8c0-65.6,0-131.1,0-196.7c0-6-0.2-11.9-0.5-17.9c-0.3-5.9-0.7-11.7-1.3-17.6
			c-0.4-5-1.3-9.9-3.2-14.5c-3.1-7.8-8.7-12.8-16.9-14.5c-4.6-0.9-9.2-1.5-13.9-2c-9.1-1-18.2-0.8-27.4-0.8c-0.7,0-1.3-0.1-2.1-0.1
			c0-4.4,0-8.6,0-13.1c66.5,0,132.9,0,199.6,0c0,2.1,0,4.3,0,6.5c0,2.1,0,4.2,0,6.6c-0.9,0-1.7,0.1-2.5,0.1c-7.2,0-14.4-0.1-21.5,0
			c-7.9,0.1-15.8,0.4-23.6,1.7c-2.4,0.4-4.9,0.9-7.3,1.6c-6.6,2-11.1,6.5-14,12.7c-1.7,3.7-2.8,7.7-3.2,11.8
			c-0.6,6.6-1.1,13.2-1.5,19.8c-0.3,5.5-0.4,11-0.5,16.5c-0.1,6.8-0.3,13.6-0.3,20.4c0,71.3,0,142.6,0,213.9
			c0,7.4,0.1,14.8,0.5,22.2c0.3,6.2,0.9,12.3,1.7,18.4c1.1,8.4,6,14.3,13.3,18.3c4.2,2.3,8.7,3.4,13.4,4c5.4,0.7,10.9,1.3,16.4,1.6
			c18.3,1,36.7,0.3,55.1,0.5c2.6,0,5.1,0,7.7-0.2c12.3-0.6,24.5-1.5,36.5-4.3c10.4-2.5,19.4-7.4,27.4-14.4
			c11.2-9.7,19.7-21.4,26.3-34.5c6.3-12.5,11.3-25.5,15.5-38.9C835.7,586.3,836.7,583.3,837.7,580.1z"/>
		<path d="M210.4,316.8c0-2.1-0.1-4,0-5.9c0.1-1.9,0.2-3.8,0.4-5.6c1.6-0.4,123.4-0.6,127.5-0.2c0.6,1.3,1.2,2.7,1.7,4.1
			c10.2,25.1,20.4,50.2,30.6,75.3c7.5,18.5,15,36.9,22.5,55.4c9.6,23.6,19.1,47.1,28.7,70.7c7.4,18.3,14.9,36.6,22.3,54.9
			c7.6,18.6,15.1,37.2,22.7,55.8c0.5,1.2,0.8,2.3,0.2,3.6c-9.5,23-18.9,46.1-28.3,69.2c-0.3,0.6-0.6,1.2-0.9,2c-3.2,0-6.4,0-9.8,0
			c-1.7-3.9-3.3-7.9-5-11.8c-6.7-15.8-13.5-31.7-20.2-47.5c-11.7-27.4-23.3-54.9-35-82.3c-10.4-24.4-20.7-48.8-31.1-73.1
			c-11.9-27.9-23.8-55.8-35.6-83.7c-5.8-13.8-11.6-27.6-17.5-41.3c-4.4-10.1-10.1-19.3-18.1-26.9c-5.7-5.4-12.1-9.5-20-10.9
			c-3-0.5-6-0.7-9-0.8c-6.5-0.2-13-0.3-19.5-0.5C215,317.1,212.8,316.9,210.4,316.8z"/>
		<path d="M247.5,696.2c-19.3,0.7-38-16.2-37.2-38.6c0.7-19,16.2-35.9,37.2-36c20.2,0,37.4,15.7,37.4,37.4
			C285,681.1,266.7,696.9,247.5,696.2z"/>
	</g>
</g>
<g id="Calque_4">
</g>
</svg>
